<?xml version="1.0" standalone="no"?>
<!DOCTYPE svg PUBLIC "-//W3C//DTD SVG 20010904//EN"
 "http://www.w3.org/TR/2001/REC-SVG-20010904/DTD/svg10.dtd">
<svg version="1.0" xmlns="http://www.w3.org/2000/svg"
 width="1061.000000pt" height="1061.000000pt" viewBox="0 0 1061.000000 1061.000000"
 preserveAspectRatio="xMidYMid meet">
<metadata>
Created by potrace 1.11, written by Peter Selinger 2001-2013
</metadata>
<g transform="translate(0.000000,1061.000000) scale(0.100000,-0.100000)"
fill="#000000" stroke="none">
<path d="M5350 10589 c-251 -64 -409 -210 -498 -459 -35 -99 -44 -139 -60
-280 -9 -72 -7 -402 2 -485 2 -22 7 -71 11 -110 24 -249 71 -460 176 -785 39
-118 73 -222 76 -230 3 -8 71 -211 152 -450 81 -239 155 -451 164 -470 32 -66
104 -137 175 -172 62 -31 74 -33 162 -32 73 0 108 5 151 22 94 37 169 116 169
179 0 21 -72 230 -150 433 -15 41 -45 120 -65 175 -20 55 -47 127 -60 160 -13
33 -42 110 -65 170 -22 61 -47 126 -55 145 -49 122 -190 545 -230 690 -77 274
-96 383 -100 560 -5 191 18 300 92 448 87 173 206 244 396 238 143 -5 239 -41
478 -179 64 -37 119 -67 123 -67 16 0 -94 131 -188 225 -138 138 -276 217
-465 267 -111 29 -292 32 -391 7z"/>
<path d="M3880 10523 c-71 -19 -176 -89 -240 -161 -96 -109 -175 -309 -195
-492 -4 -36 -9 -74 -12 -85 -7 -31 -6 -305 1 -355 39 -267 126 -577 253 -898
115 -293 286 -639 490 -992 67 -116 156 -263 231 -383 l87 -138 55 -17 c33
-10 89 -17 141 -17 79 0 92 3 155 35 76 39 127 95 144 162 23 82 24 77 -99
268 -8 14 -20 33 -26 43 -5 9 -87 140 -181 290 -175 277 -294 470 -334 542
-96 170 -131 235 -184 340 -77 151 -126 258 -166 360 -18 44 -40 100 -50 125
-58 145 -91 308 -95 471 -6 225 55 400 165 473 120 81 298 3 542 -235 50 -49
92 -88 94 -87 6 7 -65 219 -95 283 -107 233 -283 407 -465 460 -77 22 -148 25
-216 8z"/>
<path d="M8006 9349 c-2 -8 -12 -57 -21 -109 -46 -253 -138 -551 -216 -698
-72 -135 -175 -249 -518 -572 -215 -202 -276 -284 -330 -445 -40 -120 -44
-147 -45 -298 -1 -70 -2 -127 -3 -127 -1 0 -26 14 -55 31 -161 96 -346 172
-506 210 -119 28 -116 29 -130 -40 -23 -108 -111 -215 -227 -273 -173 -87
-434 -64 -580 52 -49 39 -116 134 -146 206 -20 48 -26 55 -49 52 -24 -3 -25
-5 -27 -88 -3 -190 -101 -318 -297 -389 -128 -46 -374 -32 -431 25 -12 12 -24
-5 -88 -133 -129 -257 -113 -235 -373 -508 -184 -193 -202 -212 -374 -395
-372 -396 -432 -457 -500 -501 -74 -49 -248 -140 -340 -179 -290 -123 -378
-195 -424 -350 -65 -216 -3 -408 217 -672 48 -58 51 -65 54 -127 10 -196 105
-290 328 -320 156 -22 195 -25 310 -25 113 0 280 9 335 19 14 2 52 7 85 10 33
3 121 14 195 25 176 25 281 38 355 45 33 3 76 8 95 10 34 4 62 7 230 20 41 3
91 8 110 10 19 2 66 7 103 10 l69 6 -79 -69 c-71 -63 -204 -198 -308 -313 -23
-24 -88 -102 -145 -174 -58 -71 -107 -132 -110 -135 -33 -31 -318 -443 -440
-635 -28 -44 -117 -201 -158 -275 -19 -36 -38 -69 -42 -75 -10 -13 -155 -303
-215 -430 -70 -148 -160 -360 -227 -535 -50 -130 -60 -165 -59 -217 0 -68 28
-163 67 -230 55 -93 236 -258 374 -340 255 -152 625 -298 885 -349 11 -2 31
-6 45 -9 23 -5 89 -16 170 -30 19 -3 94 -8 165 -10 115 -3 203 5 290 29 73 20
119 36 226 82 120 51 302 144 399 203 98 60 192 117 210 127 20 11 200 126
408 262 389 253 560 349 907 507 28 13 91 42 140 65 147 69 515 230 525 230 6
0 10 12 10 28 5 314 11 410 35 560 2 13 7 53 11 90 3 37 8 76 10 87 8 39 17
222 17 330 1 277 -23 373 -180 710 -135 289 -163 411 -142 615 22 213 24 225
33 285 3 22 15 112 26 200 27 210 29 221 35 280 3 28 8 66 10 85 21 156 28
580 12 670 -31 176 -109 428 -187 602 -26 59 -44 110 -40 115 12 13 74 133
100 193 12 30 30 71 38 90 9 19 16 37 17 40 5 24 88 184 146 283 107 179 185
321 231 417 39 82 94 222 103 265 21 101 65 305 69 325 3 14 14 68 26 120 12
52 23 109 25 125 2 17 6 41 10 55 49 215 54 575 10 750 -20 80 -89 248 -143
350 -61 116 -110 187 -116 169z m-1811 -2770 c42 -11 134 -45 173 -65 86 -44
160 -134 177 -214 12 -52 13 -187 3 -239 -5 -25 -11 -59 -14 -76 -23 -133
-127 -410 -207 -552 -107 -188 -235 -305 -378 -343 -179 -49 -369 -56 -466
-19 -13 5 -23 7 -23 5 0 -2 -19 2 -42 8 -104 30 -199 -4 -398 -144 -52 -37
-138 -92 -190 -124 -52 -31 -102 -61 -110 -66 -8 -5 -78 -44 -155 -87 -77 -43
-156 -87 -176 -98 -191 -109 -211 -118 -267 -119 -55 -1 -56 -1 -94 49 -42 56
-74 132 -90 215 -11 61 -4 203 14 265 41 139 190 273 498 447 272 155 527 259
713 292 75 13 143 40 165 64 25 29 103 185 210 422 30 67 101 166 166 231 132
134 321 191 491 148z m-3525 -1704 c62 -58 93 -75 141 -75 33 0 122 28 201 64
106 47 152 60 212 60 76 -1 125 -17 165 -54 48 -46 59 -77 57 -160 -2 -124
-55 -203 -155 -230 -42 -11 -86 -18 -221 -35 -50 -7 -133 -43 -168 -74 -27
-24 -51 -77 -58 -133 -10 -68 -10 -211 -1 -248 11 -42 16 -49 48 -56 37 -10
250 -12 284 -3 17 4 48 10 70 12 22 3 63 10 90 16 28 6 60 12 71 15 68 14 174
54 318 120 44 20 81 34 83 32 2 -2 -22 -18 -54 -36 -32 -18 -74 -42 -93 -53
-246 -139 -480 -208 -710 -208 -143 0 -209 52 -180 142 15 46 16 63 6 174 -13
145 -18 155 -131 277 -134 143 -165 204 -166 324 -1 94 62 199 113 189 11 -3
47 -29 78 -60z m1175 -735 c-3 -5 -12 -10 -18 -10 -7 0 -6 4 3 10 19 12 23 12
15 0z"/>
<path d="M5963 6349 c-84 -15 -172 -79 -210 -153 -9 -17 -18 -61 -21 -98 -4
-62 -2 -74 27 -133 55 -111 157 -175 291 -183 130 -7 241 53 294 159 20 42 24
63 22 117 -3 79 -24 128 -80 188 -79 83 -208 124 -323 103z"/>
<path d="M5589 9045 c11 -33 41 -125 66 -205 26 -80 83 -237 127 -350 69 -177
125 -329 223 -610 12 -36 48 -129 80 -207 l58 -142 46 -7 c25 -3 62 -10 81
-14 78 -20 91 -20 86 -2 -11 38 -25 142 -30 217 -13 208 -71 430 -151 579 -38
71 -139 214 -166 236 -6 4 -104 122 -142 170 -7 8 -68 92 -136 185 -69 94
-133 179 -143 190 -17 19 -17 17 1 -40z"/>
</g>
</svg>
