<?xml version="1.0" encoding="utf-8"?>
<!-- Generator: Adobe Illustrator 17.0.0, SVG Export Plug-In . SVG Version: 6.00 Build 0)  -->
<!DOCTYPE svg PUBLIC "-//W3C//DTD SVG 1.1//EN" "http://www.w3.org/Graphics/SVG/1.1/DTD/svg11.dtd">
<svg version="1.1" id="Layer_1" xmlns="http://www.w3.org/2000/svg" xmlns:xlink="http://www.w3.org/1999/xlink" x="0px" y="0px"
	 width="385.906px" height="682.499px" viewBox="0 0 385.906 682.499" enable-background="new 0 0 385.906 682.499"
	 xml:space="preserve">
<g>
	<path fill="#FFFFFF" d="M261.125,200.865c0,0-2.964-0.973-6.703-1.686c-3.738-0.713-7.004-1.022-7.004-1.022
		s-5.041-9.765-14.896-38.969c-4.373-12.961-10.188-26.17-14.431-38.281c-4.365-12.468-7.786-24.815-7.786-24.815
		s10.286,14.594,19.235,26.317c7.437,9.741,15.441,16.292,21.624,29.644c5.098,11.015,7.81,27.185,7.81,34.136
		C258.975,193.141,261.125,200.865,261.125,200.865z"/>
	<path fill="#FFFFFF" d="M197.379,211.473c0,0,4.009,7.476,10.509,10.913c8.225,4.345,17.591,3.314,24.871-0.834
		c7.851-4.48,7.232-10.865,7.232-10.865s-7.793-21.776-15.824-43.089c-6.165-16.345-13.007-33.786-16.289-43.965
		c-4.543-14.106-10.34-30.508-13.325-46.942c-1.98-10.896-2.528-21.809,0.18-32.076c6.794-25.747,20.517-27.693,31.202-27.111
		c10.677,0.583,21.369,7.049,24.334,8.698c4.284,2.387,13.967,7.957,13.967,7.957s-9.023-13.168-19.195-21.047
		c-10.163-7.88-36.175-20.467-60.219-7.55c-8.466,4.548-14.195,10.823-18.369,19.346c-7.684,15.682-8.621,38.974-4.056,73.114
		c2.81,21.007,11.332,42.984,17.529,61.837C189.277,188.296,197.379,211.473,197.379,211.473z"/>
	<path fill="#FFFFFF" d="M173.848,214.486c0,0,0.232,5.835-2.456,10.034c-4.096,6.398-11.914,9.176-18.613,8.972
		c-5.872-0.187-11.643-2.687-11.643-2.687s-22.053-33.104-41.066-72.073c-11.658-23.894-21.3-51.14-25.836-74.484
		c-3.539-18.21-1.438-37.304,1.913-49.198C79.833,21.978,87.313,12.698,96.292,7.6c7.362-4.178,17.033-3.506,25.136,0.757
		c8.588,4.516,16.736,13.063,22.294,23.749c6.083,11.69,7.993,22.64,7.993,22.64s-6.702-7.677-14.247-13.76
		c-7.969-6.425-16.977-11.922-24.225-9.304c-6.637,2.398-10.855,10.107-12.517,19.766c-1.873,10.877-0.57,24.224,2.964,35.235
		c8.392,26.15,22.751,51.67,35.703,72.926C152.347,180.864,173.848,214.486,173.848,214.486z"/>
	<path fill="#FFFFFF" d="M261.246,297.611c-2.654,9.806-13.82,15.364-24.92,12.412c-11.109-2.97-17.958-13.308-15.303-23.129
		c2.654-9.798,13.812-15.359,24.929-12.403C257.053,277.454,263.909,287.804,261.246,297.611z"/>
	<path fill="#FFFFFF" d="M385.631,125.843c-1.686-22.364-18.422-46.022-18.422-46.022s-5.352,34.742-15.938,54.349
		c-6.49,12.025-20.384,23.642-33.188,35.833c-8.069,7.688-15.286,14.35-19.072,23.337c-7.974,18.943-4.252,32.942-4.252,32.942
		s-12.737-8.271-25.359-12.676c-12.633-4.406-19.293-4.756-19.293-4.756s0.252,1.344-0.188,3.421
		c-1.051,5.037-4.757,14.398-17.705,19.478c-11.792,4.634-28.781,1.678-36.602-6.485c-6.001-6.266-8.637-14.904-8.637-14.904
		s-0.426-0.272-2.133,0.142c-1.327,0.323-1.763,0.669-1.763,0.669s2.264,9.077-2.379,17.371
		c-4.963,8.866-15.494,13.965-27.009,14.714c-6.552,0.423-11.765-1.14-14.892-2.387c-1.556-0.619-3.042-2.157-3.042-2.157
		s-9.634,19.855-13.339,25.441c-1.759,2.655-15.673,16.85-30.202,32.2c-16.061,16.965-32.976,35.268-37.378,39.222
		c-3.51,3.153-10.46,6.866-20.253,11.876c-7.586,3.877-17.05,6.605-22.798,10.923c-5.856,4.397-8.654,7.784-10.758,16.272
		c-2.636,10.636,0.285,18.494,3.273,24.813c1.295,2.736,4.565,7.647,7.416,11.426c3.859,5.123,7.289,8.723,7.289,8.723
		s-0.88,11.402,4.023,17.07c4.903,5.669,10.843,7.176,19.187,8.079c7.965,0.854,13.601,1.946,24.701,1.287
		c13.568-0.808,28.993-2.728,38.146-4.244c14.61-2.41,56.649-5.66,56.649-5.66s-24.196,17.412-59.654,69.681
		C66.599,558.09,47.139,615.424,47.139,615.424c-7.322,39.011,83.667,70.512,118.414,66.773
		c36.765-3.957,94.229-51.756,127.473-68.053c35.702-17.51,64.061-29.283,64.061-29.283s0.072-23.025,0.651-27.13
		c1.311-9.35,6.728-41.582,2.483-62.065c-4.251-20.482-19.529-37.503-19.708-57.489c-0.17-19.977,12.386-78.255,7.972-105.1
		c-4.414-26.843-15.154-46.332-15.154-46.332s3.077-4.715,6.401-12.191c3.321-7.468,5.757-14.284,9.152-20.425
		c3.39-6.141,12.233-19.626,19.352-34.451c7.108-14.823,7.908-24.069,10.261-34.991
		C380.842,173.766,387.309,148.207,385.631,125.843z M73.574,429.765c-2.532,0.855-9.858,3.771-17.224,5.139
		c-7.847,1.457-15.739,1.49-17.889,1.353c-4.169-0.261-7.533-2.412-8.575-5.018c-1.042-2.607,0.496-3.909,1.017-5.473
		c0.29-0.872,0.245-4.13-0.065-8.07c-0.248-3.16-0.708-5.986-0.985-8.062c-0.708-5.343-3.685-7.094-6.576-10.326
		c-4.951-5.547-10.75-10.156-11.748-19.253c-0.733-6.679,1.967-11.491,3.082-12.859c1.115-1.376,3.192-3.07,5.539-1.767
		c2.345,1.302,5.02,6.816,10.493,8.119c5.473,1.304,12.77-3.201,20.849-6.329c8.079-3.127,16.157-1.864,20.327,3.869
		c4.171,5.733,1.824,16.256-1.824,19.904c-3.648,3.648-10.92,4.462-16.678,5.041c-8.597,0.871-12.158,3.005-14.142,4.806
		c-2.305,2.092-3.839,5.023-4.361,9.454c-0.205,1.711-0.326,4.626-0.343,7.681c-0.024,4.853,0.225,8.648,0.864,9.927
		c1.042,2.085,9.902,3.03,20.848,1.727c5.474-0.651,12.196-2.085,17.397-3.258c6.017-1.359,28.735-12.159,28.735-12.159
		S80.639,427.386,73.574,429.765z M267.347,314.501c-9.48,25.353-16.915,30.673-20.776,34.346
		c-6.996,6.636-21.092,8.942-29.945,9.121c-8.852,0.171-16.849-3.559-20.684-3.233c-8.844,0.749-14.272,5.343-25.177,12.917
		c-12.509,8.682-39.686,22.672-43.66,25.327c-4.772,3.193-10.241,4.562-12.44,3.968c-2.195-0.596-9.83-10.36-9.761-22.022
		c0.07-11.671,1.475-17.885,11.834-26.916c10.367-9.038,30.528-19.93,47.573-27.228c9.882-4.226,22.868-6.467,26.382-7.338
		c4.452-1.107,6.035-5.725,7.643-8.413c2.14-3.576,6.311-14.089,10.316-22.168c2.387-4.812,7.118-12.143,13.984-17.542
		c5.693-4.471,16.361-8.788,27.062-6.303c9.724,2.264,19.668,7.622,22.356,15.009C274.839,281.664,275.011,293.986,267.347,314.501z
		"/>
</g>
</svg>
