<?xml version="1.0" encoding="utf-8"?>
<!-- Generator: Adobe Illustrator 17.0.0, SVG Export Plug-In . SVG Version: 6.00 Build 0)  -->
<!DOCTYPE svg PUBLIC "-//W3C//DTD SVG 1.1//EN" "http://www.w3.org/Graphics/SVG/1.1/DTD/svg11.dtd">
<svg version="1.1"
	 id="svg2" sodipodi:docname="facebook.svg" sodipodi:version="0.32" inkscape:version="0.47 r22583" inkscape:output_extension="org.inkscape.output.svg.inkscape" xmlns:rdf="http://www.w3.org/1999/02/22-rdf-syntax-ns#" xmlns:cc="http://creativecommons.org/ns#" xmlns:dc="http://purl.org/dc/elements/1.1/" xmlns:sodipodi="http://sodipodi.sourceforge.net/DTD/sodipodi-0.dtd" xmlns:svg="http://www.w3.org/2000/svg" xmlns:inkscape="http://www.inkscape.org/namespaces/inkscape"
	 xmlns="http://www.w3.org/2000/svg" xmlns:xlink="http://www.w3.org/1999/xlink" x="0px" y="0px" width="241.5px" height="239.5px"
	 viewBox="0 0 241.5 239.5" enable-background="new 0 0 241.5 239.5" xml:space="preserve">
<title  id="title2910">facebook web</title>
<sodipodi:namedview  inkscape:window-maximized="0" inkscape:window-y="193" inkscape:window-x="1" inkscape:document-units="px" inkscape:window-height="762" inkscape:pageshadow="2" inkscape:window-width="682" inkscape:pageopacity="0.0" inkscape:current-layer="layer1" bordercolor="#666666" pagecolor="#ffffff" borderopacity="1.0" inkscape:zoom="0.98994949" showgrid="false" inkscape:cy="64.459739" inkscape:cx="204.60201" id="base">
	</sodipodi:namedview>
<path fill="#EEEEEE" d="M203.513,2H38.488C18.889,2,3.001,17.888,3.001,37.487v165.025c0,19.599,15.888,35.487,35.487,35.487
	h165.025c19.599,0,35.487-15.888,35.487-35.487V37.487C239,17.888,223.112,2,203.513,2z M189.302,119.241H163.9v92.909h-38.073
	v-92.905h-19.021V87.228h19.021V68.005c0-26.119,10.741-41.651,41.256-41.651h25.405v32.021h-15.88
	c-11.879,0-12.665,4.474-12.665,12.825L163.9,87.224h28.768L189.302,119.241z"/>
</svg>
