<?xml version="1.0" encoding="utf-8"?>
<!-- Generator: Adobe Illustrator 17.0.0, SVG Export Plug-In . SVG Version: 6.00 Build 0)  -->
<!DOCTYPE svg PUBLIC "-//W3C//DTD SVG 1.1//EN" "http://www.w3.org/Graphics/SVG/1.1/DTD/svg11.dtd">
<svg version="1.1" id="Layer_1" xmlns="http://www.w3.org/2000/svg" xmlns:xlink="http://www.w3.org/1999/xlink" x="0px" y="0px"
	 width="367.614px" height="344.634px" viewBox="0 0 367.614 344.634" enable-background="new 0 0 367.614 344.634"
	 xml:space="preserve">
<g>
	<path fill="#1A1A1A" d="M245.352,140.573c0,57.886-46.926,104.783-104.791,104.783c-57.876,0-104.816-46.896-104.816-104.783
		c0-57.875,46.939-104.793,104.816-104.793C198.426,35.779,245.352,82.697,245.352,140.573 M334.757,344.634
		c11.469,0,32.857,0,32.857,0l-116.836-116.99c18.953-23.957,30.354-54.158,30.354-87.071C281.132,62.946,218.197,0,140.561,0
		C62.913,0,0,62.946,0,140.573c0,77.637,62.913,140.562,140.561,140.562c32.514,0,62.348-11.159,86.192-29.67l81.479,81.522
		C316.359,341.312,323.289,344.634,334.757,344.634"/>
</g>
</svg>
