<?xml version="1.0" encoding="utf-8"?>
<!-- Generator: Adobe Illustrator 17.0.0, SVG Export Plug-In . SVG Version: 6.00 Build 0)  -->
<!DOCTYPE svg PUBLIC "-//W3C//DTD SVG 1.1//EN" "http://www.w3.org/Graphics/SVG/1.1/DTD/svg11.dtd">
<svg version="1.1" id="YouTube_Logo" xmlns="http://www.w3.org/2000/svg" xmlns:xlink="http://www.w3.org/1999/xlink" x="0px"
	 y="0px" width="506.265px" height="211.196px" viewBox="0 0 506.265 211.196" enable-background="new 0 0 506.265 211.196"
	 xml:space="preserve">
<g id="You">
	<path id="u_2_" fill="#EEEEEE" d="M189.265,170.315h-19v-11c-7.203,8.256-13.309,12.426-19.965,12.426
		c-5.84,0-9.896-2.755-11.926-7.732c-1.234-3.026-2.109-7.752-2.109-14.693v-80h19v75c0,4.242,0,6,0,7
		c0.443,2.807,1.635,3.832,4.051,3.832c3.637,0,6.928-3.16,10.949-8.832v-77h19L189.265,170.315L189.265,170.315z"/>
	<path id="o_2_" fill="#EEEEEE" d="M122.265,102.315c0-10.794-2.168-18.898-6-24c-5.062-6.908-13-9.736-21-9.736
		c-9.055,0-15.946,2.828-21,9.736c-3.893,5.102-5.981,13.294-5.981,24.088l-0.019,35.912c0,10.732,1.857,18.148,5.75,23.201
		c5.054,6.887,13.25,10.535,21.25,10.535s16.339-3.648,21.4-10.535c3.832-5.053,5.6-12.469,5.6-23.201V102.315z M103.265,140.315
		c1,10-2.102,14.962-8.002,14.962s-8.998-4.962-7.998-14.962v-40c-1-10,2.1-14.687,8-14.687s9.01,4.687,8.01,14.687L103.265,140.315
		z"/>
	<path id="y_2_" fill="#EEEEEE" d="M47.265,115.315v55h-20v-55c0,0-20.725-67.431-25-80h21L37.3,87.99l13.965-52.675h21
		L47.265,115.315z"/>
</g>
<g id="Tube">
	<g>
		<path fill="#EEEEEE" d="M384.686,85.379c-2.98,0-6.395,1.573-9.422,4.561l-0.021,60.646c3.027,3.027,6.462,4.561,9.442,4.561
			c5.221,0,7.578-3.832,7.578-13.832v-43C392.265,88.315,389.907,85.379,384.686,85.379z"/>
		<path fill="#EEEEEE" d="M459.265,97.399c0-9.243-2.389-12.02-8.391-12.02c-6.047,0-8.609,2.549-8.609,11.895v11.06l17-0.019
			V97.399z"/>
		<path fill="#EEEEEE" d="M500.306,46.223c0,0-2.918-20.485-11.871-29.506C477.081,4.878,464.35,4.818,458.515,4.126
			C416.729,1.119,354.05,1.119,354.05,1.119h-0.131c0,0-62.682,0-104.467,3.007c-5.838,0.692-18.562,0.752-29.92,12.591
			c-8.953,9.021-11.867,29.506-11.867,29.506s-2.986,24.055-2.986,48.112v22.553c0,24.055,2.986,48.109,2.986,48.109
			s2.914,20.484,11.867,29.506c11.357,11.842,26.281,11.465,32.926,12.705c23.889,2.283,101.525,2.988,101.525,2.988
			s62.746-0.094,104.531-3.1c5.836-0.693,18.566-0.752,29.92-12.594c8.953-9.021,11.871-29.506,11.871-29.506
			s2.982-24.055,2.982-48.109V94.335C503.288,70.278,500.306,46.223,500.306,46.223z M270.265,170.315h-20v-115h-21V36.336l63-0.021
			v19h-22V170.315z M342.265,170.315h-19v-11c-7.203,8.256-13.309,12.426-19.965,12.426c-5.84,0-9.896-2.755-11.926-7.732
			c-1.234-3.026-2.109-7.752-2.109-14.693v-79h19v74c0,4.242,0,6,0,7c0.443,2.807,1.635,3.832,4.051,3.832
			c3.637,0,6.928-3.16,10.949-8.832v-76h19V170.315z M411.265,140.315c0,9.242-0.791,15.764-2,20
			c-2.416,7.43-7.684,11.289-14.893,11.289c-6.438,0-13.033-3.873-19.082-11.358l-0.025,10.068h-18v-134h18l-0.021,43.688
			c5.848-7.195,12.468-11.291,19.128-11.291c7.209,0,12.055,4.164,14.471,11.648c1.209,4.02,2.422,10.49,2.422,19.956V140.315z
			 M451.042,155.147c4.457,0,7.055-2.424,8.088-7.264c0.168-0.986,0.136-5.305,0.136-12.568h18.999v2.834
			c0,5.834-0.481,9.963-0.643,11.775c-0.611,4.014-2.033,7.645-4.234,10.848c-5.008,7.256-12.438,10.832-21.896,10.832
			c-9.471,0-16.68-3.408-21.914-10.236c-3.846-5-6.312-12.434-6.312-23.053v-35c0-10.68,2.244-18.936,6.09-23.991
			c5.236-6.838,12.445-10.457,21.687-10.457c9.082,0,16.291,3.619,21.365,10.457c3.785,5.055,5.889,12.867,5.889,23.547
			l0.004,20.443h-36.035v17.958C442.202,150.501,444.827,155.147,451.042,155.147z"/>
	</g>
</g>
</svg>
